<svg preserveAspectRatio="xMidYMid meet" data-bbox="0 0 90 90" xmlns="http://www.w3.org/2000/svg" viewBox="0 0 90 90" height="90" width="90" data-type="color" role="presentation" aria-hidden="true" aria-label="">
    <g>
        <path fill="#BFC6F4" d="M90 10v70c0 5.523-4.477 10-10 10H10C4.477 90 0 85.523 0 80V10C0 4.477 4.477 0 10 0h70c5.523 0 10 4.477 10 10" data-color="1"></path>
        <path fill="#000000" d="M61.5 18a1.5 1.5 0 0 1 1.47 1.206l.324 1.616a7.5 7.5 0 0 0 5.884 5.884l1.616.323a1.5 1.5 0 0 1 0 2.942l-1.616.323a7.5 7.5 0 0 0-5.884 5.884l-.323 1.616a1.5 1.5 0 0 1-2.942 0l-.323-1.616a7.5 7.5 0 0 0-5.884-5.884l-1.616-.323a1.5 1.5 0 0 1 0-2.942l1.616-.323a7.5 7.5 0 0 0 5.884-5.884l.323-1.616A1.5 1.5 0 0 1 61.5 18" data-color="2"></path>
        <path fill="#000000" d="M40.5 27a1.5 1.5 0 0 1 1.447 1.105l1.343 4.923A19.5 19.5 0 0 0 56.972 46.71l4.923 1.343a1.5 1.5 0 0 1 0 2.894l-4.923 1.343A19.5 19.5 0 0 0 43.29 65.972l-1.343 4.923a1.5 1.5 0 0 1-2.894 0l-1.343-4.923A19.5 19.5 0 0 0 24.028 52.29l-4.923-1.343a1.5 1.5 0 0 1 0-2.894l4.923-1.343A19.5 19.5 0 0 0 37.71 33.028l1.343-4.923A1.5 1.5 0 0 1 40.5 27" data-color="2"></path>
    </g>
</svg>