<svg width="72" height="75" viewBox="0 0 72 75" fill="none" xmlns="http://www.w3.org/2000/svg">
<path fill-rule="evenodd" clip-rule="evenodd" d="M8.42289 44.3425C27.1251 47.5861 45.8276 47.4771 64.5297 44.3425V18.3416C64.5297 18.0454 64.4338 17.7574 64.2562 17.5206L51.94 1.09901C51.6815 0.754484 51.2759 0.551514 50.8453 0.551514H12.5283C11.4395 0.551514 10.3951 0.984057 9.62527 1.7539C8.85543 2.52407 8.42289 3.56815 8.42289 4.6569V36.1318C8.42289 38.1641 7.94633 39.8867 7.94633 41.2599C7.94633 43.1582 8.42289 44.3425 8.42289 44.3425Z" fill="#D8DFE3"/>
<path fill-rule="evenodd" clip-rule="evenodd" d="M0.212128 40.7949V70.3431C0.212128 71.4319 0.644671 72.4763 1.41451 73.2461C2.18436 74.016 3.22877 74.4485 4.31751 74.4485H67.2669C68.3556 74.4485 69.3997 74.016 70.1699 73.2461C70.9397 72.4763 71.3723 71.4319 71.3723 70.3431C71.3723 65.0994 71.3723 53.6917 71.3723 48.448C71.3723 47.3592 70.9397 46.3148 70.1699 45.545C69.3997 44.7751 68.3556 44.3426 67.2669 44.3426H5.68609C3.94015 44.3426 0.212128 40.7949 0.212128 40.7949Z" fill="#44E2C2"/>
<path fill-rule="evenodd" clip-rule="evenodd" d="M4.31752 44.3425C3.06816 44.3425 2.15611 43.8358 1.4848 43.2118C0.853225 42.6245 0.212128 41.5896 0.212128 40.2372C0.212128 39.3691 0.644671 38.104 1.41451 37.3342C2.18436 36.5643 3.22877 36.1318 4.31752 36.1318H8.4229V44.3425C8.4229 44.3425 8.77465 44.3425 4.31752 44.3425Z" fill="#3DA48F"/>
<path fill-rule="evenodd" clip-rule="evenodd" d="M50.8453 0.551514V14.2362C50.8453 15.325 51.2779 16.3694 52.0477 17.1392C52.8176 17.9091 53.8616 18.3416 54.9507 18.3416H64.5297C64.5297 18.0454 64.4338 17.7574 64.2562 17.5206L51.94 1.09901C51.6815 0.754484 51.2759 0.551514 50.8453 0.551514Z" fill="#AFBDC7"/>
<path fill-rule="evenodd" clip-rule="evenodd" d="M20.7391 19.7102H38.5292C39.2842 19.7102 39.8974 19.097 39.8974 18.3417C39.8974 17.5863 39.2842 16.9731 38.5292 16.9731H20.7391C19.9837 16.9731 19.3705 17.5863 19.3705 18.3417C19.3705 19.097 19.9837 19.7102 20.7391 19.7102Z" fill="#44E2C2"/>
<path fill-rule="evenodd" clip-rule="evenodd" d="M20.7391 27.921H52.2136C52.969 27.921 53.5821 27.3078 53.5821 26.5524C53.5821 25.797 52.969 25.1838 52.2136 25.1838H20.7391C19.9837 25.1838 19.3705 25.797 19.3705 26.5524C19.3705 27.3078 19.9837 27.921 20.7391 27.921Z" fill="#44E2C2"/>
<path fill-rule="evenodd" clip-rule="evenodd" d="M20.7391 36.1317H52.2136C52.969 36.1317 53.5821 35.5186 53.5821 34.7632C53.5821 34.0078 52.969 33.3946 52.2136 33.3946H20.7391C19.9837 33.3946 19.3705 34.0078 19.3705 34.7632C19.3705 35.5186 19.9837 36.1317 20.7391 36.1317Z" fill="#44E2C2"/>
<path fill-rule="evenodd" clip-rule="evenodd" d="M43.4165 53.0614L48.8905 66.7461C49.0981 67.2657 49.6016 67.6063 50.1609 67.6063C50.7205 67.6063 51.2237 67.2657 51.4316 66.7461L56.9055 53.0614C57.186 52.3602 56.8444 51.5631 56.1429 51.2826C55.4417 51.0021 54.6446 51.3437 54.3641 52.0449L50.1609 62.553L45.9576 52.0449C45.6771 51.3437 44.88 51.0021 44.1788 51.2826C43.4776 51.5631 43.1361 52.3602 43.4165 53.0614Z" fill="white"/>
<path fill-rule="evenodd" clip-rule="evenodd" d="M22.2049 51.1849H21.4229C17.644 51.1849 14.5807 54.2482 14.5807 58.0271V60.7643C14.5807 64.5432 17.644 67.6065 21.4229 67.6065H22.2049C24.6461 67.6065 26.863 66.1824 27.8779 63.9622C28.0194 63.6528 28.0473 63.5944 28.1383 63.3927C28.4966 62.5973 28.0641 61.8711 27.5504 61.613C26.6926 61.1817 25.9142 61.6596 25.6491 62.2547C25.5687 62.4353 25.3887 62.8245 25.3887 62.8245C24.8189 64.0703 23.5751 64.8697 22.2049 64.8697H21.4229C19.1554 64.8697 17.3175 63.0314 17.3175 60.7643V58.0271C17.3175 55.76 19.1554 53.9217 21.4229 53.9217H22.2049C23.5751 53.9217 24.8189 54.7212 25.3887 55.9669C25.3887 55.9669 25.5555 56.3406 25.6491 56.5367C26.0603 57.3985 27.0325 57.521 27.6473 57.1217C28.0792 56.8405 28.4871 56.1617 28.1383 55.3987C27.8779 54.8292 27.8779 54.8292 27.8779 54.8292C26.863 52.609 24.6461 51.1849 22.2049 51.1849Z" fill="white"/>
<path fill-rule="evenodd" clip-rule="evenodd" d="M30.3184 62.8253V63.5035C30.3184 64.5916 30.7506 65.6354 31.5198 66.4046C32.2893 67.1741 33.3327 67.6063 34.4208 67.6063H37.5054C38.5935 67.6063 39.637 67.1741 40.4065 66.4046C41.176 65.6354 41.6082 64.5916 41.6082 63.5035C41.6082 63.3196 41.6082 63.137 41.6082 62.959C41.6082 61.2804 40.5861 59.7709 39.0274 59.1472L34.0513 57.1569C33.4497 56.9162 33.0552 56.3336 33.0552 55.6856V55.2901C33.0552 54.9272 33.1994 54.5791 33.4559 54.3226C33.7127 54.0658 34.0605 53.9216 34.4234 53.9216H37.5028C37.8657 53.9216 38.2139 54.0658 38.4704 54.3226C38.7269 54.5791 38.8711 54.9272 38.8711 55.2901V55.9661C38.8711 56.3523 39.0418 56.7017 39.2136 56.8791C39.4806 57.1822 39.8642 57.3428 40.2396 57.3428C40.9057 57.3428 41.6082 56.8285 41.6082 55.9661V55.2901C41.6082 54.2014 41.1757 53.157 40.4058 52.3871C39.6356 51.6173 38.5916 51.1848 37.5028 51.1848H34.4238C33.3347 51.1848 32.2906 51.6173 31.5208 52.3871C30.7509 53.157 30.3184 54.2014 30.3184 55.2901V55.6856C30.3184 57.4525 31.3943 59.0418 33.0348 59.698L38.0109 61.6886C38.5305 61.8962 38.8711 62.3997 38.8711 62.959V63.5035C38.8711 63.8658 38.7272 64.2133 38.471 64.4695C38.2152 64.7256 37.8677 64.8695 37.5054 64.8695H34.4208C34.0586 64.8695 33.7114 64.7256 33.4552 64.4695C33.1991 64.2133 33.0552 63.8658 33.0552 63.5039C33.0552 63.5035 33.0552 63.5035 33.0552 62.825C33.0552 61.9225 32.3195 61.4476 31.7106 61.4476C31.1332 61.4476 30.3184 61.8952 30.3184 62.8168V62.8253Z" fill="white"/>
</svg>
